<svg width="132" height="121" viewBox="0 0 132 121" fill="none" xmlns="http://www.w3.org/2000/svg">
<g clip-path="url(#clip0_597_25)">
<path d="M65.96 120.32C102.389 120.32 131.92 93.3855 131.92 60.16C131.92 26.9345 102.389 0 65.96 0C29.5313 0 0 26.9345 0 60.16C0 93.3855 29.5313 120.32 65.96 120.32Z" fill="#CFE8F5"/>
<path d="M87.53 72.8501V60.2001H93.85C99.56 60.2001 104.19 64.8301 104.19 70.5401V89.5101C94.99 89.5101 87.53 82.0501 87.53 72.8501Z" fill="#7FC2EF"/>
<path d="M87.53 47.54V60.19H93.85C99.56 60.19 104.19 55.56 104.19 49.85V30.88C94.99 30.88 87.53 38.34 87.53 47.54Z" fill="white"/>
<path d="M73.0799 45.6H35.1499L40.5499 34.33C41.8799 31.56 44.6799 29.79 47.7599 29.79H80.6599L73.0799 45.6Z" fill="white"/>
<path d="M80.0099 95.4801H61.1899C50.9699 95.4801 42.6799 87.1901 42.6799 76.9701H61.4999C71.7199 76.9701 80.0099 85.2601 80.0099 95.4801Z" fill="#7FC2EF"/>
<path d="M87.53 59.8101C79.19 46.2901 67.76 38.0701 55.13 38.0701C42.5 38.0701 31.08 46.2901 22.73 59.8101H87.52H87.53Z" fill="#F46813"/>
<path d="M22.74 59.8101C31.08 73.3301 42.51 81.5501 55.14 81.5501C67.77 81.5501 79.19 73.3301 87.54 59.8101H22.74Z" fill="#E22512"/>
<path d="M65.34 48.0901C72.03 54.7801 72.03 65.6101 65.34 72.3001L53.24 60.2001L65.34 48.1001V48.0901Z" fill="#E4E4D8"/>
<path d="M46.0199 50.67C46.0199 53.11 44.0399 55.09 41.5999 55.09C39.1599 55.09 37.1799 53.11 37.1799 50.67C37.1799 48.23 39.1599 46.25 41.5999 46.25C44.0399 46.25 46.0199 48.23 46.0199 50.67Z" fill="#201D30"/>
</g>
<defs>
<clipPath id="clip0_597_25">
<rect width="131.92" height="120.31" fill="white"/>
</clipPath>
</defs>
</svg>
