{
  "accessors": [
    {
      "bufferView": 0,
      "componentType": 5125,
      "count": 42888,
      "type": "SCALAR"
    },
    {
      "bufferView": 1,
      "componentType": 5126,
      "count": 8098,
      "max": [
        0.011302584281455197,
        0.012381079387120852,
        0.0071270625688646455
      ],
      "min": [
        -0.011302584281455197,
        -0.012381079387120852,
        -0.0071270625688646455
      ],
      "type": "VEC3"
    },
    {
      "bufferView": 2,
      "componentType": 5126,
      "count": 8098,
      "max": [
        0.999999999999921,
        0.9999900289171185,
        0.9997316134015082
      ],
      "min": [
        -0.9999999999999226,
        -0.9999900257230517,
        -1.0
      ],
      "type": "VEC3"
    },
    {
      "bufferView": 3,
      "componentType": 5126,
      "count": 8098,
      "max": [
        1.0,
        0.9222086901898653
      ],
      "min": [
        0.0,
        0.0
      ],
      "type": "VEC2"
    }
  ],
  "asset": {
    "generator": "Adobe Illustrator",
    "version": "2.0"
  },
  "bufferViews": [
    {
      "buffer": 0,
      "byteLength": 171552,
      "target": 34963
    },
    {
      "buffer": 0,
      "byteLength": 97176,
      "byteOffset": 171552,
      "target": 34962
    },
    {
      "buffer": 0,
      "byteLength": 97176,
      "byteOffset": 268728,
      "target": 34962
    },
    {
      "buffer": 0,
      "byteLength": 64784,
      "byteOffset": 365904,
      "target": 34962
    }
  ],
  "buffers": [
    {
      "byteLength": 430688,
      "uri": "data:application/octet-stream;base64,"
    }
  ],
  "materials": [
    {
      "doubleSided": true,
      "pbrMetallicRoughness": {
        "baseColorFactor": [
          0.17578125,
          0.66796875,
          0.3984375,
          1.0
        ],
        "metallicFactor": 0.0,
        "roughnessFactor": 0.4000000059604645
      }
    }
  ],
  "meshes": [
    {
      "primitives": [
        {
          "attributes": {
            "NORMAL": 2,
            "POSITION": 1,
            "TEXCOORD_0": 3
          },
          "indices": 0,
          "material": 0,
          "mode": 4
        }
      ]
    }
  ],
  "nodes": [
    {
      "mesh": 0
    }
  ],
  "scenes": [
    {
      "nodes": [
        0
      ]
    }
  ]
}
