{
  "accessors": [
    {
      "bufferView": 0,
      "componentType": 5125,
      "count": 42912,
      "type": "SCALAR"
    },
    {
      "bufferView": 1,
      "componentType": 5126,
      "count": 8102,
      "max": [
        0.011302599811248898,
        0.012381091555899587,
        0.007127066772648942
      ],
      "min": [
        -0.011302599811248898,
        -0.012381091555899587,
        -0.007127066772648942
      ],
      "type": "VEC3"
    },
    {
      "bufferView": 2,
      "componentType": 5126,
      "count": 8102,
      "max": [
        1.0,
        0.9999900272466529,
        0.9997316791584011
      ],
      "min": [
        -1.0,
        -0.9999900271645753,
        -1.0
      ],
      "type": "VEC3"
    },
    {
      "bufferView": 3,
      "componentType": 5126,
      "count": 8102,
      "max": [
        1.0,
        0.9222085522227766
      ],
      "min": [
        0.0,
        0.0
      ],
      "type": "VEC2"
    }
  ],
  "asset": {
    "generator": "Adobe Illustrator",
    "version": "2.0"
  },
  "bufferViews": [
    {
      "buffer": 0,
      "byteLength": 171648,
      "target": 34963
    },
    {
      "buffer": 0,
      "byteLength": 97224,
      "byteOffset": 171648,
      "target": 34962
    },
    {
      "buffer": 0,
      "byteLength": 97224,
      "byteOffset": 268872,
      "target": 34962
    },
    {
      "buffer": 0,
      "byteLength": 64816,
      "byteOffset": 366096,
      "target": 34962
    }
  ],
  "buffers": [
    {
      "byteLength": 430912,
      "uri": "data:application/octet-stream;base64,"
    }
  ],
  "materials": [
    {
      "doubleSided": true,
      "pbrMetallicRoughness": {
        "baseColorFactor": [
          0.77734375,
          0.2734375,
          0.9648436903953552,
          1.0
        ],
        "metallicFactor": 0.0,
        "roughnessFactor": 0.4000000059604645
      }
    }
  ],
  "meshes": [
    {
      "primitives": [
        {
          "attributes": {
            "NORMAL": 2,
            "POSITION": 1,
            "TEXCOORD_0": 3
          },
          "indices": 0,
          "material": 0,
          "mode": 4
        }
      ]
    }
  ],
  "nodes": [
    {
      "mesh": 0
    }
  ],
  "scenes": [
    {
      "nodes": [
        0
      ]
    }
  ]
}
